<svg width="48" height="48" viewBox="0 0 48 48" fill="none" xmlns="http://www.w3.org/2000/svg"><path fill-rule="evenodd" clip-rule="evenodd" d="m10.78 27.916-1.65.39c.083.419.118.832.114 1.232l1.735.507c.102.03.159.136.127.237a.197.197 0 0 1-.242.129l-1.638-.478c-.137 1.705-1.04 3.128-2.394 3.415-1.354.32-2.767-.519-3.632-1.987l-1.261 1.165c-.079.12-.201.09-.274-.007a.19.19 0 0 1 .011-.27l1.336-1.234a6.008 6.008 0 0 1-.434-1.156l-1.649.39c-.1.025-.172-.039-.225-.141a.19.19 0 0 1 .14-.23l1.649-.39a6.04 6.04 0 0 1-.114-1.232l-1.735-.46a.305.305 0 0 1-.127-.283c.082-.102.14-.16.242-.13l1.639.479c.073-.286.069-.562.133-.826.633.388 1.86.634 2.94.378 1.08-.256 2.074-1.028 2.473-1.66.173.207.335.434.48.68l1.26-1.166a.195.195 0 0 1 .274.007c.073.087.096.197-.01.27L8.61 26.779c.178.412.342.744.435 1.157l1.648-.391c.1-.024.202.04.225.179.024.065-.04.168-.14.192Zm-6.148.87a.572.572 0 0 0-.42.686c.071.307.373.498.675.478.303-.123.525-.43.42-.738a.562.562 0 0 0-.675-.426Zm1.94.909c-.504.12-.817.665-.7 1.143.117.512.621.83 1.125.711.503-.095.817-.631.7-1.143a.944.944 0 0 0-1.126-.711Zm1.43-7.182c-1.032.244-1.512 1.4-1.421 2.154.395.186.772.456 1.11.802-.293.574-1.249 1.324-2.304 1.574-1.056.25-2.24.007-2.752-.377.153-.462.373-.872.647-1.218-.246-.716-1.18-1.537-2.212-1.293-.067.024-.201-.04-.2-.142-.048-.102.015-.205.115-.228.976-.232 2.152.422 2.577 1.354.348-.297.76-.53 1.23-.692.469-.111.951-.067 1.403.068-.024-1.027.746-2.142 1.722-2.373.1-.024.201.04.225.168.023.077-.04.179-.14.203Z" fill="url(#a)"/><path fill-rule="evenodd" clip-rule="evenodd" d="m19.486 45.338-.105.426a.47.47 0 0 1 .265.083l.3-.312a.043.043 0 0 1 .063 0 .048.048 0 0 1 0 .066l-.284.294c.336.221.52.57.433.893-.086.324-.418.53-.817.548l.098.4c.033.073-.009.05-.033.056-.012.007-.048-.007-.054.015l-.103-.47a.86.86 0 0 1-.253-.038l-.139.419c-.006 0-.03.014-.055.007-.01-.007-.037-.025-.03-.055l.104-.395c-.061-.03-.184-.025-.266-.114l-.299.311a.043.043 0 0 1-.063 0 .048.048 0 0 1 0-.065l.283-.294a1.21 1.21 0 0 1-.154-.122c.15-.042.34-.324.408-.535.07-.305.022-.59-.015-.759.015-.013.08-.022.146.014l-.098-.438a.048.048 0 0 1 .033-.058c.023-.006.053.008.054.033l.103.453c.094.024.19-.016.287.008l.105-.395a.044.044 0 0 1 .055-.031.045.045 0 0 1 .03.055Zm-.513 1.404a.136.136 0 0 0 .094.166.133.133 0 0 0 .163-.095.136.136 0 0 0-.094-.166.133.133 0 0 0-.163.095Zm.405-.31a.226.226 0 0 0 .156.277c.119.033.24-.038.301-.158.004-.12-.066-.245-.184-.278a.222.222 0 0 0-.273.16Zm-1.315-1.112c-.027.247.117.479.282.544a.91.91 0 0 1 .29-.145c.115.127.132.414.064.666-.067.253-.25.477-.387.543-.071-.085-.124-.178-.177-.242a.422.422 0 0 0-.515.291.044.044 0 0 1-.054.032.045.045 0 0 1-.032-.055c.063-.233.33-.41.569-.395a.65.65 0 0 1-.004-.34c.03-.111.09-.209.172-.29-.177-.11-.356-.4-.294-.633a.044.044 0 0 1 .054-.031c.044.006.038.031.032.055Z" fill="url(#b)"/><path fill-rule="evenodd" clip-rule="evenodd" d="m34.79 20.52-.886-.417c-.11.274-.238.42-.38.6l.612.858c.036.092.025.119-.025.153a.113.113 0 0 1-.155-.029l-.577-.809c-.658.726-1.553 1.031-2.247.688-.755-.343-1.11-1.235-.99-2.214l-.98.074c-.062.005-.08-.04-.123-.101a.107.107 0 0 1 .1-.119l1.038-.079a3.47 3.47 0 0 1 .206-.682l-.885-.417a.11.11 0 0 1-.053-.146c.025-.055.09-.049.176-.054l.853.418c.109-.22.237-.42.397-.6l-.63-.858a.109.109 0 0 1 .025-.153.113.113 0 0 1 .156.029l.577.809c.11-.122.228-.23.35-.328.151.405.623.96 1.203 1.233.58.274 1.302.282 1.704.139.006.157 0 .318 0 .482l.96-.075a.115.115 0 0 1 .122.102.107.107 0 0 1-.099.119l-1.038.079a5.244 5.244 0 0 1-.189.682l.868.456c.054-.013.078.052.053.107-.026.055-.04.08-.144.054Zm-3.098-1.823c-.163-.077-.347-.005-.43.16-.076.165-.005.414.157.438.2.076.355.005.43-.16.076-.141.005-.361-.157-.438Zm.564 1.113c-.271-.127-.592-.008-.718.318-.125.224-.008.55.263.678.27.156.592.008.717-.267a.553.553 0 0 0-.262-.729Zm3.158-2.747c-.554-.262-1.141.09-1.398.466.114.227.192.485.224.782-.333.138-1.002.134-1.597-.134-.567-.267-1.02-.792-1.119-1.164a2.13 2.13 0 0 1 .741-.32c.117-.415.008-1.125-.575-1.386-.054-.026-.077-.09-.034-.14.007-.06.071-.085.125-.06.555.248.83.97.698 1.546.276-.027.556.01.8.13.253.118.457.306.615.537.348-.475 1.087-.704 1.64-.457.025.026.049.091.023.146-.025.092-.089.08-.143.054Z" fill="url(#c)"/><path fill-rule="evenodd" clip-rule="evenodd" d="m29.027 11.887-.326.622c.159.087.302.189.43.3l.685-.441c-.007.014.043-.016.067.022a.087.087 0 0 1-.025.117l-.604.416c.53.514.715 1.215.448 1.738-.268.54-.927.783-1.64.669l.032.741c.002.046-.033.086-.066.09-.056.003-.094-.032-.096-.067l.012-.796a2.104 2.104 0 0 1-.538-.172l-.326.658c-.02.04-.068.095-.107.036.002-.02-.056-.069-.036-.11l.326-.657a2.506 2.506 0 0 1-.43-.3l-.64.44a.078.078 0 0 1-.111-.022.087.087 0 0 1 .024-.116l.605-.417c-.086-.043-.163-.177-.23-.238.298-.138.714-.481.928-.912.213-.432.236-.976.141-1.283.115 0 .232.008.352.027l-.031-.742a.086.086 0 0 1 .077-.09c.045-.003.082.032.084.09l.033.774c.164.038.33.095.493.172l.326-.659a.08.08 0 0 1 .108-.036c.04.02.107.07.035.146Zm-1.405 2.258a.247.247 0 0 0 .107.328c.119.06.264.012.323-.098.06-.101.012-.278-.106-.339a.239.239 0 0 0-.324.109Zm.827-.4a.41.41 0 0 0 .178.548c.198.101.439.02.564-.18a.448.448 0 0 0-.204-.548.398.398 0 0 0-.538.18Zm-1.931-2.422c-.204.386.038.864.306 1.04.212-.028.36-.133.564-.151.106.255.11.78-.122 1.202-.21.422-.612.75-.839.817-.145-.178-.17-.364-.255-.55-.299-.107-.82-.028-1.024.384-.02.04-.069.091-.108.036-.004-.02-.056-.069-.036-.11.193-.389.727-.603 1.198-.489a.788.788 0 0 1 .06-.601c.093-.188.235-.337.408-.45-.34-.274-.488-.838-.296-1.227a.08.08 0 0 1 .108-.037c.04.02.056.07.036.136Z" fill="url(#d)"/><path fill-rule="evenodd" clip-rule="evenodd" d="M32.556 25.518a.126.126 0 0 1-.059.01l-.258-.027c-.072-.008-.123-.073-.098-.095l.14-1.625a.13.13 0 0 1 .141-.118l.259.027c.02.002.039.01.056.02.453-.817 1.39-1.33 2.412-1.224 1.354.14 2.362 1.31 2.217 2.616-.13 1.304-1.334 2.249-2.69 2.109-1.022-.106-1.837-.799-2.12-1.693Zm-.534-1.764-.157 1.575a.13.13 0 0 1-.143.118.131.131 0 0 1-.116-.144l.204-1.575c-.04-.073.025-.126.096-.118a.131.131 0 0 1 .116.144Zm-.516-.053-.158 1.575c.038.073-.055.125-.142.118a.131.131 0 0 1-.116-.145l.157-1.575a.13.13 0 0 1 .143-.118c.108.008.123.072.116.145Zm-.543.21-.06 1.05c-.052.072-.116.125-.187.117a.131.131 0 0 1-.116-.145l.105-1.05c.007-.072.07-.09.142-.117.115.007.123.072.116.144Zm-.556.385-.026.217c.027.073-.023.125-.142.118a.131.131 0 0 1-.116-.145l.026-.262a.13.13 0 0 1 .142-.118c.071.007.123.072.116.19Z" fill="url(#e)"/><path fill-rule="evenodd" clip-rule="evenodd" d="M14.5 31.855c.016-.06.033-.063.093-.06l.184.028a.115.115 0 0 1 .1.128l-.168 1.378c-.008.075-.064.109-.127.1l-.226-.028c-.018-.002-.034.015-.048-.02a2.153 2.153 0 0 1-2.137 1.028c-1.185-.148-2.034-1.194-1.895-2.335.138-1.141 1.211-1.946 2.396-1.797.894.158 1.596.735 1.827 1.578Zm.435 1.502.167-1.34c.008-.1.065-.146.127-.138a.115.115 0 0 1 .099.13l-.114 1.377c-.061.063-.1.108-.18.1a.115.115 0 0 1-.1-.129Zm.452.057.167-1.377a.114.114 0 0 1 .127-.101.115.115 0 0 1 .099.129l-.168 1.377a.114.114 0 0 1-.127.101.115.115 0 0 1-.098-.129Zm.48-.173.11-.918a.114.114 0 0 1 .127-.1c.063.051.107.076.1.157l-.112.898c-.008.081-.065.1-.127.092a.115.115 0 0 1-.099-.129Zm.493-.288.027-.23c.008-.011.065-.108.127-.1a.115.115 0 0 1 .1.13l-.029.229c-.007.063-.064.16-.127.1a.115.115 0 0 1-.098-.129Z" fill="url(#f)"/><path fill-rule="evenodd" clip-rule="evenodd" d="M46.058 20.572a.058.058 0 0 1 .008.025l.026.116c.012.032-.045.059-.076.06l-.682.027a.057.057 0 0 1-.06-.056l-.004-.073c0-.052.002-.06.006-.068-.378-.15-.62-.532-.671-.99-.023-.606.416-1.116.994-1.138.552-.023 1.03.451 1.053 1.057.017.458-.23.86-.594 1.04Zm-.72.344.682-.027a.057.057 0 0 1 .06.055.057.057 0 0 1-.055.06l-.683.027c-.031.001-.044-.023-.035-.055-.025-.032 0-.06.03-.06Zm.04.23.65.015c.032-.012.059-.018.06.014a.057.057 0 0 1-.055.06l-.682.027c-.031.002-.058-.017-.059-.055-.001-.032.023-.06.085-.06Zm.138.227.408-.018a.057.057 0 0 1 .06.056.058.058 0 0 1-.056.06l-.454.068c-.032-.049-.058-.074-.06-.106 0-.032.024-.058.102-.06Zm.163.225.083-.005a.057.057 0 0 1 .06.056c0 .032-.024.059-.05.06l-.119.004a.057.057 0 0 1-.059-.055c-.001-.032.023-.059.084-.06Z" fill="url(#g)"/><path fill-rule="evenodd" clip-rule="evenodd" d="M26.962 35.595c.009.052.016.023.018.038l.035.18c.01.05.018.123-.07.108l-1.064.212c-.049.01-.061-.023-.106-.072l-.034-.18c-.003-.015-.002.017.002-.043-.627-.141-1.152-.67-1.272-1.384-.2-.945.365-1.853 1.245-2.03.881-.175 1.743.448 1.925 1.393.19.713-.15 1.405-.679 1.778Zm-1.046.718 1.063-.212a.09.09 0 0 1 .106.072c.01.05-.022.098-.071.149l-1.063.171c-.031.01-.096-.023-.075-.072-.04-.05-.009-.098.04-.108Zm.07.36 1.063-.163c.049-.059.096-.026.106.023a.092.092 0 0 1-.072.108l-1.062.212c-.05.01-.097-.004-.106-.072.018-.05.022-.098.07-.108Zm.247.325.708-.142c.061-.01.097.023.106.073a.092.092 0 0 1-.071.108l-.68.141c-.078.01-.125-.022-.135-.072a.092.092 0 0 1 .072-.108Zm.351.307.161-.035c.049.005.096.022.106.072a.092.092 0 0 1-.071.108l-.177.035c-.05.01-.09-.022-.106-.072-.01-.05.022-.098.087-.108Z" fill="url(#h)"/><path fill-rule="evenodd" clip-rule="evenodd" d="M26.358 2.373a.079.079 0 0 1-.034.015l-.16.027a.082.082 0 0 1-.094-.069l-.153-.979a.083.083 0 0 1 .067-.095l.172-.026c.002-.002.014 0 .026.004.17-.52.678-1.032 1.266-1.135.842-.093 1.628.41 1.755 1.22.128.812-.451 1.58-1.294 1.716a1.536 1.536 0 0 1-1.55-.678Zm-.602-.98.154.98c.007.044-.023.125-.058.094a.136.136 0 0 1-.102-.03l-.154-1.018c-.007-.045.023-.087.093-.094.018-.008.06.023.067.068Zm-.32.052.153.98c.007.044-.023.087-.067.113-.045-.012-.086-.043-.093-.088l-.154-.979a.082.082 0 0 1 .067-.094.081.081 0 0 1 .093.068Zm-.296.244.144.624c-.034.045-.065.087-.11.095a.081.081 0 0 1-.092-.069l-.103-.653c-.007-.045.024-.058.068-.094.044-.007.086.023.093.097Zm-.283.268.026.163c.007.046-.023.088-.02.143-.092-.04-.133-.071-.14-.117l-.003-.163c-.03-.045 0-.087.044-.094a.082.082 0 0 1 .093.068Z" fill="url(#i)"/><path fill-rule="evenodd" clip-rule="evenodd" d="M41.992 38.944c-.03-.015-.034-.004-.04.005l-.078.118a.07.07 0 0 1-.097.018l-.692-.478a.072.072 0 0 1-.019-.098l.078-.117a.068.068 0 0 1 .025-.022 1.368 1.368 0 0 1 .047-1.472c.41-.615 1.209-.793 1.782-.397s.705 1.216.302 1.831c-.319.496-.801.68-1.307.612Zm-.986-.22.692.479c.032.04.04.066.019.098a.069.069 0 0 1-.097.019l-.692-.478a.072.072 0 0 1-.019-.099.07.07 0 0 1 .097-.018Zm-.157.235.71.478c.014.022.023.066.001.153-.022-.022-.065-.014-.097-.036l-.692-.478c-.032-.022-.04-.066-.018-.09.021-.04.087-.049.096-.027Zm-.04.314.46.329c.06.012.04.109.019.088a.069.069 0 0 1-.097.02l-.461-.32c0-.022-.04-.066-.019-.098a.07.07 0 0 1 .097-.019Zm.015.354.15.08c-.002.022.006.066-.016.098-.015.045-.065.041-.097.02l-.115-.08a.072.072 0 0 1-.019-.099.069.069 0 0 1 .097-.019Z" fill="url(#j)"/><path fill-rule="evenodd" clip-rule="evenodd" d="M15.424 40.348a.28.28 0 0 1-.214.333l-7.036 1.5a.277.277 0 0 1-.327-.218c-.01-.048-.006-.053.059-.14l-.022-.001 2.127-7.362h.003a.273.273 0 0 1 .462-.098l.001-.002 4.886 5.86-.002.002a.28.28 0 0 1 .063.126Zm-4.426-3.652-.541.116a.281.281 0 0 0-.214.332l.668 1.868c.031.181.178.25.327.218a.281.281 0 0 0 .214-.333l-.126-1.983c.001-.152-.178-.25-.328-.218Zm.338 2.809c-.34.064-.531.362-.469.665.079.304.356.5.655.435a.562.562 0 0 0 .428-.665c-.063-.304-.342-.499-.614-.435Z" fill="url(#k)"/><path fill-rule="evenodd" clip-rule="evenodd" d="M26.656 9.175c-.036.101-.104.154-.245.117l-4.678-1.719c-.1-.036-.15-.147-.085-.249-.018-.032.001-.058.025-.065v.02l3.903-3.57h.002a.188.188 0 0 1 .185-.032c.065.024.109.081.122.145h.001l.78 5.256h-.002a.194.194 0 0 1-.008.097ZM25.357 5.39l-.348-.133c-.11-.005-.22.016-.256.117l-.276 1.347a.196.196 0 0 0 .115.249.19.19 0 0 0 .245-.117l.635-1.214a.195.195 0 0 0-.115-.25Zm-.83 1.762c-.199-.073-.418.055-.49.234a.39.39 0 0 0 .23.498c.199.073.418-.031.51-.233a.421.421 0 0 0-.25-.499Z" fill="url(#l)"/><path fill-rule="evenodd" clip-rule="evenodd" d="M3.727 23.105c-.027.05-.106.088-.179.062L.144 21.944c-.072-.054-.11-.136-.053-.155-.022-.078-.008-.097.01-.112L.1 21.676l2.841-2.573v.001a.137.137 0 0 1 .224.082h.002l.567 3.825h-.002a.266.266 0 0 1-.005.094Zm-.907-2.778-.3-.096a.139.139 0 0 0-.179.085l-.2.98c-.01.073.012.154.084.18.097.027.152-.01.178-.084l.462-.884a.178.178 0 0 0-.045-.181Zm-.607 1.315c-.18-.085-.325-.01-.392.138a.284.284 0 0 0 .167.362.277.277 0 0 0 .357-.17c.052-.147-.023-.31-.132-.33Z" fill="url(#m)"/><path fill-rule="evenodd" clip-rule="evenodd" d="M22.794 27.386a.194.194 0 0 1-.145.232l-4.852 1.123c-.076.01-.206-.055-.229-.16-.007.012-.005-.067.025-.075l-.016-.005 1.414-5.133h.002a.192.192 0 0 1 .138-.128c.068-.016.187.008.18.055h.001l3.438 4.003v.001a.193.193 0 0 1 .044.087Zm-3.098-2.481-.357.085c-.12.024-.184.128-.161.233l.48 1.285c.024.105.126.17.23.147.15-.024.167-.128.144-.232l-.108-1.371a.191.191 0 0 0-.228-.147Zm.274 1.94c-.247.047-.377.255-.33.465.074.21.25.34.457.294a.39.39 0 0 0 .29-.465c-.047-.21-.252-.341-.417-.294Z" fill="url(#n)"/><path fill-rule="evenodd" clip-rule="evenodd" d="m14.523 11.43-2.51-.422-2.449 1.236.252-1.595-.314-.05c-1.04-.17-1.747-1.165-1.58-2.222l.454-2.871c.167-1.057 1.146-1.777 2.185-1.607l5.06.82c1 .17 1.713 1.165 1.54 2.265l-.453 2.828a1.9 1.9 0 0 1-2.185 1.618ZM10.76 6.713c-.346-.056-.632.183-.728.587-.056.301.18.633.527.69.346.1.682-.184.728-.536a.645.645 0 0 0-.527-.74Zm1.883.308a.645.645 0 1 0-.17 1.276c.315.105.641-.183.697-.536.08-.352-.18-.684-.527-.74Zm1.883.307a.637.637 0 0 0-.729.536.645.645 0 0 0 .527.74.637.637 0 0 0 .728-.535.645.645 0 0 0-.526-.74Z" fill="url(#o)"/><path fill-rule="evenodd" clip-rule="evenodd" d="m27.528 42.801-1.478-.241-1.441.728.169-.94-.206-.03a1.14 1.14 0 0 1-.93-1.308l.267-1.69a1.125 1.125 0 0 1 1.287-.946l2.956.507c.612.076 1.029.661.93 1.284l-.267 1.69c-.098.642-.632 1.046-1.287.946Zm-2.215-2.77a.375.375 0 0 0-.429.315.38.38 0 0 0 .31.436.375.375 0 0 0 .429-.315.38.38 0 0 0-.31-.436Zm1.108.181c-.204-.033-.372.108-.428.315a.38.38 0 0 0 .31.436.37.37 0 0 0 .429-.315.38.38 0 0 0-.31-.436Zm1.109.22c-.204-.072-.396.069-.429.276a.38.38 0 0 0 .31.436.375.375 0 0 0 .43-.315c.032-.207-.107-.403-.311-.397Z" fill="url(#p)"/><path fill-rule="evenodd" clip-rule="evenodd" d="m22.795 47.664-.607-.074-.556.262.051-.328-.072-.009c-.24-.03-.406-.232-.372-.45l.093-.589c.034-.217.255-.368.495-.337l1.154.15c.24.03.406.231.372.448l-.093.611c-.034.196-.247.367-.465.316Z" fill="url(#q)"/><path fill-rule="evenodd" clip-rule="evenodd" d="m47.728 25.348-.552.137-.317.609-.176-.49-.033.017c-.26.057-.536-.157-.652-.477l-.318-.87c-.117-.32.018-.626.195-.683l1.083-.273c.224-.057.523.157.618.477l.317.87c.117.352.03.646-.165.683Z" fill="url(#r)"/><path fill-rule="evenodd" clip-rule="evenodd" d="m37.223 43.762-.553.137-.317.609-.176-.49-.033.018c-.259.056-.535-.157-.652-.478l-.317-.87c-.117-.32.017-.626.194-.682l1.084-.274c.224-.057.522.157.617.477l.318.87c.116.352.03.646-.165.683Z" fill="url(#s)"/><path fill-rule="evenodd" clip-rule="evenodd" d="m20.847 33.359-1.376-.199-1.379.697.125-.87-.175-.017a1.067 1.067 0 0 1-.902-1.2l.224-1.518c.083-.624.621-1.024 1.202-.942l2.805.396c.581.082.985.616.902 1.192l-.224 1.566c-.083.576-.62.977-1.202.895Z" fill="url(#t)"/><path fill-rule="evenodd" clip-rule="evenodd" d="m28.76 22.889-2.212 3.547-4.164-1.056 2.747 3.256-2.178 3.567 3.84-1.417 2.722 3.096-.247-4.184 3.925-1.551-4.126-1.056-.306-4.202Z" fill="url(#u)"/><path fill-rule="evenodd" clip-rule="evenodd" d="M39.053 4.61a.938.938 0 0 0-.7.322l-.006-.006-5.509 6.162-1.91-1.907-.015.003a.943.943 0 0 0-.676-.288c-.508 0-.958.457-.958.974 0 .208.072.4.174.558l2.682 3.897h.002c.173.25.459.416.783.416.311 0 .585-.153.76-.386l.003.002 6.132-8.183-.003-.002a.976.976 0 0 0 .2-.588.966.966 0 0 0-.959-.974Z" fill="url(#v)"/><path fill-rule="evenodd" clip-rule="evenodd" d="M19.376 35.083a.406.406 0 0 0-.334-.021l-.002-.004-3.375 1.215-.338-1.123h-.001a.42.42 0 0 0-.202-.25c-.204-.11-.456.001-.565.175a.427.427 0 0 0-.045.25l.248 2.063c.017.126.118.25.218.317.17.064.256.062.37.009v.001l4.004-1.872v-.001c.08-.038.165-.1.194-.185a.428.428 0 0 0-.172-.574Z" fill="url(#w)"/><path fill-rule="evenodd" clip-rule="evenodd" d="M33.314 42.318a.408.408 0 0 0-.305.14l-.003-.002-2.42 2.684-.783-.83h-.01c-.1-.077-.158-.125-.318-.125a.426.426 0 0 0-.341.667h-.001L30.3 46.55c.076.108.2.18.342.18a.477.477 0 0 0 .349-.168l-.003.001L33.646 43l-.002-.001a.426.426 0 0 0 .087-.256.42.42 0 0 0-.417-.425Z" fill="url(#x)"/><path fill-rule="evenodd" clip-rule="evenodd" d="M19.065 17.336a.408.408 0 0 0-.305.14l-.003-.002-2.42 2.683-.783-.83-.01.001c-.1-.077-.158-.125-.318-.125a.426.426 0 0 0-.341.667h-.001l1.168 1.697c.076.11.2.181.342.181a.477.477 0 0 0 .349-.168l-.003.001 2.657-3.563-.002-.001a.426.426 0 0 0 .087-.257.42.42 0 0 0-.417-.424Z" fill="url(#y)"/><path fill-rule="evenodd" clip-rule="evenodd" d="M15.978 23.744a.543.543 0 0 0-.233.328h-.005l-.976 4-1.302-.196v.001a.535.535 0 0 0-.372.084c-.236.172-.321.447-.19.656a.4.4 0 0 0 .214.166l2.147.736a.51.51 0 0 0 .451-.066.542.542 0 0 0 .245-.37h.002l.74-4.952h-.001c.015-.1 0-.2-.055-.287a.508.508 0 0 0-.665-.1Z" fill="url(#z)"/><path fill-rule="evenodd" clip-rule="evenodd" d="M37.274 12.947a.244.244 0 0 0-.104.147h-.002l-.439 1.795-.584-.088c-.054.017-.114.004-.167.038-.105.069-.144.212-.085.294.023.037.057.062.135.075h-.002l.94.33h.002a.196.196 0 0 0 .187-.03c.063-.04.124-.102.11-.165l.333-2.223a.198.198 0 0 0-.025-.128c-.059-.094-.193-.114-.299-.045Z" fill="url(#A)"/><path fill-rule="evenodd" clip-rule="evenodd" d="M46.09 28.023a.398.398 0 0 0-.207.262h-.003l-.782 3.202-1.041-.158v.002a.484.484 0 0 0-.298.067.43.43 0 0 0-.152.564c.04.025.101.07.21.093l-.004.001 1.683.589v-.001a.42.42 0 0 0 .361-.052.434.434 0 0 0 .196-.296h.002l.593-3.964h-.002c.012-.08 0-.16-.044-.229-.104-.167-.343-.203-.511-.08Z" fill="url(#B)"/><path fill-rule="evenodd" clip-rule="evenodd" d="M25.077 24.637c-2.423.452-4.749-1.178-5.194-3.618-.444-2.488 1.16-4.852 3.583-5.29 2.423-.466 4.749 1.164 5.194 3.628.467 2.464-1.16 4.864-3.583 5.28Zm-.698-2.454a.327.327 0 0 0 .486-.09.343.343 0 0 0 .054-.283.378.378 0 0 0-.15-.244.375.375 0 0 0-.262-.065.327.327 0 0 0-.224.156.384.384 0 0 0-.054.282c.019.147.068.183.15.244Zm.644-3.666c-.078-.12-.171-.215-.281-.244-.11-.113-.233-.118-.369-.184a1.185 1.185 0 0 0-.422.006 1.193 1.193 0 0 0-.72.424c-.174.225-.253.506-.24.843l.544-.043a.808.808 0 0 1 .108-.494c.085-.137.212-.174.383-.253a.535.535 0 0 1 .422.097.647.647 0 0 1 .24.4.59.59 0 0 1-.002.243.751.751 0 0 1-.076.219c-.018.07-.074.14-.12.21-.044.068-.09.136-.135.203a1.192 1.192 0 0 0-.126.216.454.454 0 0 0-.1.18.74.74 0 0 0-.03.196c0 .07.008.156.026.258l.062.345.502-.093-.045-.25a1.553 1.553 0 0 1-.025-.2c-.003-.053.001-.104.013-.105a.445.445 0 0 1 .055-.185c.026-.006.062-.102.107-.136l.043-.054.25-.45c.053-.107.089-.218.108-.332.018-.115.015-.19-.01-.387a1.165 1.165 0 0 0-.162-.43Z" fill="url(#C)"/><path fill-rule="evenodd" clip-rule="evenodd" d="M20.354 44.768c-1.565.342-3.06-.715-3.347-2.342-.286-1.585.762-3.105 2.304-3.396 1.56-.291 3.055.758 3.341 2.356.286 1.571-.745 3.091-2.298 3.382ZM19.9 43.19a.21.21 0 0 0 .312-.058.246.246 0 0 0 .035-.182.244.244 0 0 0-.096-.157.21.21 0 0 0-.312.058.349.349 0 0 0-.036.227c.012.02.044.085.097.112Zm.414-2.358a.608.608 0 0 0-.418-.275.73.73 0 0 0-.266.003.727.727 0 0 0-.469.273c-.111.145-.162.326-.153.584l.349-.07a.52.52 0 0 1 .07-.317.381.381 0 0 1 .246-.163.345.345 0 0 1 .145.004c.047.03.089.03.126.059a.4.4 0 0 1 .098.107c.028.044.046.145.056.168.028.038.024.09 0 .138-.012.049-.028.096-.034.141a.613.613 0 0 0-.092.157c-.03.022-.058.066-.088.109-.036.09-.067.1-.09.14-.025.077-.043.076-.055.115a.472.472 0 0 0-.019.125c0 .046.005.11.016.214l.04.175.323-.06-.029-.16a1.197 1.197 0 0 1-.016-.12c.05-.044.001-.077.008-.107.008-.03.02-.06.036-.09.017-.029.04-.065.069-.108l.028-.039.16-.263c.034-.07.091-.14.07-.215a.737.737 0 0 0-.007-.249.75.75 0 0 0-.104-.276Z" fill="url(#D)"/><path fill-rule="evenodd" clip-rule="evenodd" d="M9.654 16.201c-.045.207-.13.548-.429.768.12.115.13.316.13.58-.002.28-.27.54-.637.86.008.139.179.382-.074.65-.391.45-1.392.473-2.777.203-1.68-.426-2.334-.704-2.878-1.06-.47-.309-.894-.497-1.904-.726v-.004c-.08-.022-.132-.105-.061-.19l.638-3.146a.159.159 0 0 1 .19-.122c.003 0 .005.003.008.004.457.127.698.066.968-.25.217-.228.486-.572 1.113-.976 1.513-.966 1.961-1.326 2.13-2.092.1-.454.438-.59.73-.524.468.106.845.748.67 1.496-.124.564-.505 1.043-.798 1.372-.182.204-.37.415-.346.552.007.002.054.089.326.201.384.159.9.172 1.335.17.538-.002 1.004.04 1.34.323.207.174.264.529.056.974.272.214.354.553.27.937Z" fill="url(#E)"/><path fill-rule="evenodd" clip-rule="evenodd" d="M30.33 32.512a.432.432 0 0 0 .235.303.437.437 0 0 0-.021.238c.022.142.155.236.334.35.006.06-.044.204.075.276.198.168.632.11 1.21-.119.702-.278.966-.442 1.178-.633.183-.164.39-.274.803-.441l-.007-.002c.012-.015.03-.054.016-.09l-.504-1.313c.031-.036-.054-.054-.09-.04l-.003.002c-.19.076-.297.076-.434-.017-.1-.11-.248-.24-.545-.372-.71-.317-.888-.441-1.029-.743-.1-.207-.256-.244-.378-.195-.18.077-.32.357-.148.691.047.236.242.417.39.54.092.076.187.154.184.202-.001.014.014.055-.126.122-.155.094-.378.134-.566.163-.214.035-.43.085-.558.23-.078.09-.08.246.037.408a.434.434 0 0 0-.053.44Z" fill="url(#F)"/><path fill-rule="evenodd" clip-rule="evenodd" d="M35.435 5.065a.516.516 0 0 1-.31.27c.027.064.008.16-.027.302-.052.1-.212.171-.425.253-.018.063.01.195-.12.276-.26.135-.706-.018-1.27-.383-.684-.437-.93-.672-1.115-.919-.16-.213-.317-.365-.729-.63l.002-.003c-.033-.023-.024-.068-.021-.102l.802-1.281c.045-.036.068-.046.103-.014l.003.03c.186.096.299.107.468.01.122-.069.306-.161.647-.25.814-.184 1.078-.268 1.273-.58.115-.184.287-.19.406-.113.19.124.317.446.06.792-.143.21-.387.36-.569.458-.113.06-.23.123-.235.174-.002.016.005.062.108.156.145.133.372.223.564.293.239.086.438.181.543.361.064.111.066.277-.124.424.082.156.064.32-.034.476Z" fill="url(#G)"/><path fill-rule="evenodd" clip-rule="evenodd" d="M35.898 38.274c-1.707-.511-2.683-2.332-2.18-4.067.502-1.727 2.294-2.728 4-2.217 1.707.511 2.684 2.332 2.18 4.067-.502 1.736-2.293 2.728-4 2.217Zm1.512-4.435a.328.328 0 0 0-.203-.172c-.091.001-.179-.017-.264.08-.085 0-.142.072-.133.167-.064.137-.055.187-.009.274a.333.333 0 0 0 .205.17c.09.027.177.03.262-.03a.503.503 0 0 0 .193-.215.537.537 0 0 0-.05-.274Zm-.433 2.78a.478.478 0 0 1-.078-.044c-.025-.017-.046-.035-.036-.01-.056-.067-.074-.097-.082-.133.024-.036.049-.076.008-.12l.433-1.496-.017-.036-.837-.197-.04.138a.567.567 0 0 1 .105.06c.05.058.063.05.078.07.06.028.036.062.044.1a.234.234 0 0 1-.006.124l-.276 1.097c-.055.078-.074.082-.096.117a.243.243 0 0 1-.172.028 1.856 1.856 0 0 1-.089-.016l-.04.137 1.061.318.04-.138Z" fill="url(#H)"/><path fill-rule="evenodd" clip-rule="evenodd" d="M10.903 24.428a2.237 2.237 0 0 1-1.188-2.987c.414-1.173 1.73-1.738 2.883-1.262 1.155.476 1.71 1.813 1.243 2.986a2.243 2.243 0 0 1-2.938 1.263Zm1.368-2.983a.301.301 0 0 0-.143-.134.228.228 0 0 0-.186.003c-.063.028-.094.074-.132.139a.248.248 0 0 0 0 .192c.047.064.07.108.131.133.06.025.122.024.185-.003a.302.302 0 0 0 .143-.138.46.46 0 0 0 .002-.192Zm-.504 1.905c-.018-.01-.036.004-.031-.036a.132.132 0 0 1-.062-.04c.016-.02-.027-.042-.03-.026-.004-.067 0-.094.047-.124l.37-1.012-.01-.026-.57-.196-.036.093a.396.396 0 0 1 .068.049c.067.02.04.039.05.055.013.02.02.045.024.082a.157.157 0 0 1-.013.076l-.296.742c-.013.074-.028.055-.02.07a.39.39 0 0 0-.094.047c-.016-.019-.034-.027-.045-.032a.22.22 0 0 1-.06-.017l-.046.093.717.295.037-.093Z" fill="url(#I)"/><path fill-rule="evenodd" clip-rule="evenodd" d="M21.427 37.495c-.944-.268-1.456-1.223-1.192-2.085.264-.96 1.245-1.48 2.1-1.212.895.268 1.407 1.266 1.143 2.134-.264.91-1.203 1.431-2.05 1.163Zm.745-2.327a.172.172 0 0 0-.107-.09.17.17 0 0 0-.138.016.184.184 0 0 0-.088.114.185.185 0 0 0 .014.143c.024.046.06.075.107.09a.17.17 0 0 0 .138-.017.182.182 0 0 0 .088-.112.188.188 0 0 0-.014-.144Zm-.227 1.459a.262.262 0 0 1-.041-.024c-.013-.009-.024.003-.034-.027a.087.087 0 0 1-.028-.047c-.004-.02-.002-.04.004-.015l.228-.833-.01-.019-.438-.103-.021.072a.299.299 0 0 1 .054.031c.05.014.034.026.042.037a.131.131 0 0 1 .02.118l-.167.575a.132.132 0 0 1-.029.055c-.012.013-.006.02-.05.023a.084.084 0 0 1-.031-.002c-.024.048-.04.02-.055-.008l-.021.072.556.167.021-.072Z" fill="url(#J)"/><path fill-rule="evenodd" clip-rule="evenodd" d="M12.914 45.475c-.944-.269-1.456-1.224-1.192-2.085.264-.96 1.245-1.48 2.099-1.213.896.269 1.408 1.266 1.144 2.135-.264.91-1.204 1.43-2.05 1.163Zm.745-2.328a.173.173 0 0 0-.107-.09.17.17 0 0 0-.138.017.184.184 0 0 0-.089.113.185.185 0 0 0 .015.144c.024.045.06.075.107.09a.17.17 0 0 0 .138-.017.182.182 0 0 0 .088-.113.188.188 0 0 0-.014-.144Zm-.227 1.459a.253.253 0 0 1-.041-.023c-.013-.009-.024.002-.034-.028a.087.087 0 0 1-.028-.047c-.004-.019-.003-.04.004-.014l.227-.834-.008-.018-.44-.104-.02.072a.299.299 0 0 1 .054.032c.049.013.033.026.042.037a.133.133 0 0 1 .02.117l-.168.576a.132.132 0 0 1-.028.055c-.012.013-.007.02-.05.022a.082.082 0 0 1-.032-.001c-.024.047-.039.019-.055-.009l-.02.072.556.167.02-.072Z" fill="url(#K)"/><path fill-rule="evenodd" clip-rule="evenodd" d="M43.006 22.012s-3.723-1.885-4.56-4.18c-.55-1.472.178-3.119 1.626-3.678 1.448-.559 3.068.182 3.618 1.654.838 2.245-.684 6.204-.684 6.204Zm-2.305-6.159c-.534.19-.802.798-.6 1.34.203.542.8.815 1.333.626.584-.223.802-.83.6-1.372a1.009 1.009 0 0 0-1.333-.593Z" fill="url(#L)"/><path fill-rule="evenodd" clip-rule="evenodd" d="M16.932 3.74s-1.67-.06-2.347-.692a1.217 1.217 0 0 1-.024-1.647c.431-.452 1.175-.463 1.585-.025.677.669.786 2.363.786 2.363Zm-1.863-1.838a.436.436 0 0 0 .01.593.408.408 0 0 0 .583-.009c.176-.166.155-.432-.009-.593a.408.408 0 0 0-.584.009Z" fill="url(#M)"/><path fill-rule="evenodd" clip-rule="evenodd" d="M42.576 27.337c-.38.342-.893.524-1.43.466l-.428 2.564 1.601.277a.118.118 0 0 1 .095.136c-.01.064-.07.107-.134.112L40.68 30.6l-.229-.039-1.601-.277a.118.118 0 0 1-.095-.136c.032-.064.088-.107.176-.096l1.56.323.428-2.61a1.934 1.934 0 0 1-1.197-.92c-1.658-.313-1.578-1.486-1.328-2.981.044-.064.1-.098.134-.097l1.258.218.02-.116c.01-.064.07-.055.133-.097l3.432.593c.063.011.14.072.095.137l-.02.143 1.258.19a.118.118 0 0 1 .095.137c-.25 1.495-.556 2.628-2.222 2.366Zm-3.063-1.725.233-1.395-1.144-.198c-.176 1.202-.332 2.277 1 2.574a1.969 1.969 0 0 1-.09-.981Zm2.956-.087-.61-.106-.19-.797a.117.117 0 0 0-.093-.089c-.047-.008-.051.014-.117.052l-.438.69-.61-.081c-.064-.036-.123.007-.089.072-.002.063-.043.053-.03.076h-.002l.335.615-.214.628-.005.019c.014.064.032.125.095.136.018.003.036 0 .053-.005v.002l.738-.213.532.432h.001c.014.01.03.018.048.021a.116.116 0 0 0 .134-.096v-.02h.002l.002-.664.516-.468-.001-.001c.019-.017.034-.04.038-.033.011-.09-.031-.146-.095-.17Zm.937-.676-.205 1.396a2.008 2.008 0 0 1-.428.883c1.35.18 1.574-.879 1.777-2.047l-1.144-.232Zm-1.588 1.206.001.002c-.019.017.005.04-.038.067-.001.006.03.013.03.02h-.032l-.001.485-.444-.33h-.001c-.014-.01.012-.018-.049-.022-.018.024-.036.05-.053.005v-.001l-.526.163.156-.46h-.002c.002-.007.006-.012.007-.006a.14.14 0 0 0-.015-.088l.002-.001-.243-.446.46.077c.035.008.08-.014.105-.052l.332-.523.144.604v.001c.021.045.046.08.093.089l.449.077-.375.34Z" fill="url(#N)"/><path fill-rule="evenodd" clip-rule="evenodd" d="m16.34 17.365-1.134-1.207a1.628 1.628 0 0 0 0-1.857l1.134-1.153c.465.563.747 1.288.747 2.081 0 .808-.282 1.518-.747 2.136Zm-2.435-3.753c-.34 0-.655.11-.914.294l-1.133-1.152c.553-.435 1.267-.76 2.047-.76.78 0 1.51.325 2.046.76l-1.133 1.152a1.564 1.564 0 0 0-.913-.294Zm-1.591 1.617c0 .346.107.666.29.929l-1.134 1.207c-.466-.618-.747-1.328-.747-2.136 0-.793.281-1.518.747-2.08l1.133 1.152c-.182.263-.29.582-.29.928Zm1.59 1.618c.34 0 .655-.11.914-.295l1.133 1.152a3.104 3.104 0 0 1-2.046.76c-.78 0-1.494-.286-2.047-.76l1.133-1.152c.259.185.573.295.914.295Z" fill="url(#O)"/><path fill-rule="evenodd" clip-rule="evenodd" d="m27.528 47.295-.67-.68a.962.962 0 0 0 .172-.549c0-.204-.064-.346-.171-.549l.67-.68c.274.332.44.76.44 1.229 0 .468-.166.897-.44 1.23Zm-1.438-2.184a.924.924 0 0 0-.54.173l-.62-.68c.278-.28.7-.449 1.16-.449.46 0 .882.17 1.21.449l-.641.68a1.093 1.093 0 0 0-.569-.173Zm-.94.955c0 .204.064.393.171.549l-.67.68a1.922 1.922 0 0 1-.44-1.229c0-.468.166-.897.44-1.23l.67.681c-.107.203-.17.345-.17.549Zm.94.987c.201 0 .387-.066.569-.205l.64.68c-.327.28-.748.449-1.209.449-.46 0-.882-.17-1.16-.449l.62-.68a.78.78 0 0 0 .54.206Z" fill="url(#P)"/><path fill-rule="evenodd" clip-rule="evenodd" d="M23.665 9.72h.002l.074.784-.782.325-.167-.93.707-.29c.056-.027.131.005.159.073.005.012.005.025.007.038Zm-.952 1.255-.646.224-.253-.894.732-.304.167.975Zm.142.792-.527.198-.189-.51.621-.258.095.57Zm.256 1.157-.501.19-.254-.841.547-.28.208.931Zm-1.926-1.359-.344-.856.73-.304.254.942-.64.218Zm-.388 1.303.54-.224.395.856-.5.187-.435-.819Zm-.373-.702.618-.24.197.491-.566.217-.249-.468Zm-.548-1.018.724-.288.344.83-.644.242-.424-.784Zm.624 2.842-.486-.797.54-.224.435.818-.489.203Zm-.903-1.48.585-.243.249.468-.556.23-.278-.455Zm-.626-1.025.658-.27.429.838-.6.282-.487-.85Zm-.086 1.891-.277-.45.745-.315.278.456-.746.31Zm-1.228-1.916-.864.358c-.045.028-.142-.005-.17-.072-.026-.068.006-.139.072-.173l.963-.377c.058-.046.122-.003.176.03l.022-.002.335.585.536-.223.487.797-.762.317-.795-1.24Zm2.6 2.632-.622.257a.127.127 0 0 1-.155-.051l-.003.001-.447-.697.74-.308.486.798Zm.078.252c.333-.138.712.071.848.362.183.389-.024.724-.356.862a.646.646 0 0 1-.848-.362.665.665 0 0 1 .356-.862Zm1.746-2.278-.601.233-.197-.49.614-.254.184.51Zm.287 1.15-.403.184-.387-.856.536-.223.254.894Zm.855-.07c.333-.139.712.023.848.391.136.308-.024.694-.356.881a.718.718 0 0 1-.848-.411.664.664 0 0 1 .356-.862Zm-.075-1.254.697-.277.082.9-.002.002c.006.013-.024.061-.078.084l-.532.22-.167-.93Zm-.122-.797.741-.317.052.55-.718.298-.075-.531Z" fill="url(#Q)"/><path fill-rule="evenodd" clip-rule="evenodd" d="m31.39 5.866-.483 1.403-3.046-.325-.238-1.448a.387.387 0 0 1 .229-.727c.193.036.36.21.326.422a.388.388 0 0 1-.034.123l.609.881.44-.715c.03-.058-.038-.124-.031-.192a.382.382 0 0 1 .415-.348c.209.02.362.21.342.422-.007.069-.014.13-.068.183l.298.788.764-.747a.382.382 0 0 1 .405-.475c.209.02.362.21.342.422a.385.385 0 0 1-.27.333Zm-2.883.678a.153.153 0 0 0-.166.139.154.154 0 0 0 .137.169c.113.008.158-.054.166-.14a.154.154 0 0 0-.137-.168Zm.606.06a.153.153 0 0 0-.166.138.154.154 0 0 0 .137.17c.129.007.158-.055.166-.14a.154.154 0 0 0-.137-.169Zm.606.059a.153.153 0 0 0-.166.139.154.154 0 0 0 .136.169.153.153 0 0 0 .166-.14.154.154 0 0 0-.136-.168Zm.605.06a.153.153 0 0 0-.166.138.154.154 0 0 0 .137.17.153.153 0 0 0 .166-.14.154.154 0 0 0-.137-.169Zm.657.685a.31.31 0 0 1 .027.158c-.016.19-.165.33-.294.278l-2.763-.268a.308.308 0 0 1-.218-.487l3.248.32Z" fill="url(#R)"/><path fill-rule="evenodd" clip-rule="evenodd" d="m37.89 30.176-2.79.797a.309.309 0 0 1-.297-.207l-.456-1.655a.246.246 0 0 1 .167-.302l.465-.133c.233-.066.251-.454.484-.52.232-.066.349-.05.349-.05s.147-.082.349-.149c.232-.066.446.256.679.19l.465-.133c.128-.037.261.063.297.17l.456 1.655c.036.13-.039.266-.167.337Zm-1.916-1.528a.738.738 0 0 0-.502.908c.108.391.508.62.893.51.386-.086.61-.516.503-.886-.108-.413-.508-.642-.894-.532Zm.947-.206a.123.123 0 0 0-.084.151.12.12 0 0 0 .15.085.123.123 0 0 0 .083-.15c-.018-.066-.085-.066-.149-.086Zm-.588 1.506a.603.603 0 0 1-.744-.425.637.637 0 0 1 .418-.757c.321-.091.654.1.744.426.09.326-.055.665-.418.756Zm-.293-1.064a.492.492 0 0 0-.335.605.482.482 0 0 0 .595.34.492.492 0 0 0 .335-.604.482.482 0 0 0-.595-.34Zm.228.857c-.193.026-.393-.042-.447-.285a.37.37 0 0 1 .251-.454.362.362 0 0 1 .447.256c.054.196-.059.399-.251.483Z" fill="url(#S)"/><path fill-rule="evenodd" clip-rule="evenodd" d="M38.42 22.548 36.033 21.5c-.16-.048-.212-.18-.127-.293l.571-1.444a.181.181 0 0 1 .28-.092l.406.147c.203.088.433-.178.662-.09.177.086.326.13.326.13s.054.044.257.13c.203.136.194.44.378.528l.406.175c.112.048.164.193.146.293l-.63 1.444a.219.219 0 0 1-.288.119Zm-.531-2.173a.657.657 0 0 0-.866.357c-.142.341.015.735.405.931.282.093.67-.067.812-.408a.676.676 0 0 0-.351-.88Zm.79.4c-.056.012-.12.003-.144.06a.113.113 0 0 0 .058.146.11.11 0 0 0 .144-.06.113.113 0 0 0-.058-.146Zm-1.262.734c-.236-.12-.411-.449-.293-.734a.548.548 0 0 1 .722-.297c.28.12.411.448.293.733a.547.547 0 0 1-.722.298Zm.386-.928a.438.438 0 0 0-.577.238.45.45 0 0 0 .234.587.438.438 0 0 0 .577-.238.45.45 0 0 0-.234-.587Zm-.3.751c-.168-.102-.217-.299-.176-.47.071-.116.265-.25.433-.178.168.072.247.27.176.44a.372.372 0 0 1-.433.208Z" fill="url(#T)"/><path fill-rule="evenodd" clip-rule="evenodd" d="m43.76 36.153-1.947-.819c-.049-.018-.129-.14-.056-.23l.434-1.13c.037-.062.182-.13.226-.093l.318.137c.158.068.339-.14.516-.047.14.044.22.078.22.078l.238.102c.158.068.137.345.296.413l.365.136c.04.038.081.141.044.269l-.47 1.091c-.037.09-.138.13-.183.093Zm-.457-1.7a.514.514 0 0 0-.678.279c-.111.267.012.576.275.724a.563.563 0 0 0 .677-.315.529.529 0 0 0-.274-.689Zm.618.313c-.044.027-.095.002-.113.046-.019.045.002.096.046.127.072.007.094-.014.113-.059a.088.088 0 0 0-.046-.114Zm-.943.574c-.264-.094-.367-.338-.274-.574.093-.223.352-.291.565-.233a.44.44 0 0 1 .229.574c-.093.223-.346.327-.52.233Zm.304-.726a.403.403 0 0 0-.498.186.353.353 0 0 0 .183.46.343.343 0 0 0 .452-.187c.074-.178-.008-.384-.137-.46Zm-.282.565a.272.272 0 0 1-.137-.345.257.257 0 0 1 .339-.14c.131.057.193.211.137.345-.055.145-.207.218-.339.14Z" fill="url(#U)"/><path fill-rule="evenodd" clip-rule="evenodd" d="m33.425 39.995-2.917.917a.152.152 0 0 1-.191-.103l-1.083-3.56a.156.156 0 0 1 .101-.194l.219-.068-.068-.223a.078.078 0 0 1 .05-.097c.041-.013.084.01.096.051l.068.223.438-.138-.05-.222c-.03-.041-.008-.085.032-.097.04-.013.083.01.096.051l.067.223.438-.138-.067-.222a.078.078 0 0 1 .05-.098c.04-.012.083.01.095.052l.068.222.438-.137-.068-.223a.078.078 0 0 1 .05-.097c.04-.013.084.01.096.051l.068.223.437-.138-.052-.216c-.028-.047-.005-.09.035-.103.04-.013.083.01.096.05l.067.223.219-.068c.08-.026.166.072.191.102l1.082 3.56a.156.156 0 0 1-.1.194Zm-2.723-.11 1.286-.38-.018-.182-1.34.413.072.148Zm1.294-3.016-2.043.642.045.148 2.043-.597-.045-.193Zm.135.445-2.043.642.093.148 1.995-.641-.045-.149Zm.135.445-2.042.642.045.167 2.042-.66-.045-.149Zm.136.445-2.043.642.045.148 2.043-.642-.046-.148Zm.135.445-2.008.642.01.148 2.043-.6-.045-.19Z" fill="url(#V)"/><path fill-rule="evenodd" clip-rule="evenodd" d="M19.704 7.235c-.062-.029-.125-.028-.184-.041a.485.485 0 0 1-.3.274c-.13.042-.264.052-.374-.012-.035.003-.076.027-.122.041a.353.353 0 0 1-.159.012.477.477 0 0 1-.229.251c-.26.07-.497-.056-.567-.282-.069-.227.055-.468.278-.504a.28.28 0 0 1 .267-.028c.076-.058.11-.126.194-.152a.447.447 0 0 1 .138-.015c.057-.115.157-.17.288-.248.14-.045.284.015.4.053a.358.358 0 0 1 .154-.1.361.361 0 0 1 .454.242c.06.194-.047.4-.238.509Zm-1.37.643a.542.542 0 0 0 .303-.242c.041-.002.1-.009.123.006.034-.039.067-.054.097-.071.123.049.263.058.4.015a.603.603 0 0 0 .331-.26.475.475 0 0 0 .363-.158l.731 2.34c-.01.015-.045.084-.109.104l-1.677.547c-.093.02-.184-.016-.204-.08l-.18-.586-.345.11a.12.12 0 0 1-.151-.082l-.431-1.406c-.02-.065.016-.119.08-.154l.308-.097a.532.532 0 0 0 .361.014Zm1.634 1.411a.06.06 0 0 0 .076.04.062.062 0 0 0 .04-.076l-.503-1.611c-.01-.063-.044-.08-.045-.07-.063.01-.08.083-.07.076l.502 1.641Zm-.415.146c-.036.032-.002.05.03.04a.062.062 0 0 0 .04-.076l-.503-1.641a.06.06 0 0 0-.076-.04.062.062 0 0 0-.04.076l.55 1.641Zm-.507.196c.01-.018.044 0 .075-.01.032-.01.05-.031.04-.077l-.485-1.64c-.027-.033-.061-.05-.093-.04a.062.062 0 0 0-.04.076l.503 1.69Zm-.915-.146.36-.11-.445-1.406-.346.11.431 1.406Z" fill="url(#W)"/><path fill-rule="evenodd" clip-rule="evenodd" d="M40.017 41.014c.01-.035-.07-.08-.087-.127a.408.408 0 0 1-.466-.348c-.019-.036-.07-.055-.1-.08-.036-.03-.062-.047-.08-.108a.346.346 0 0 1-.292-.076c-.15-.078-.127-.351-.01-.502.09-.151.31-.172.46-.045.06.089.099.119.115.191a.295.295 0 0 1 .264.161c.104-.011.247.019.3.092.118.08.142.193.143.308.05.01.097.03.139.065a.31.31 0 0 1 .037.43c-.091.13-.296.147-.423.039Zm-1.09-.66c.088.074.196.108.302.105.053.028.043.07.07.077.023.02.048.036.074.05a.51.51 0 0 0 .17.29c.095.08.211.12.326.118a.407.407 0 0 0 .272.186l-1.237 1.528c-.054.043-.118.048-.16.012l-1.153-.97c-.043-.046-.049-.11-.013-.153l.321-.391-.23-.196c-.043-.036.001-.1-.013-.144l.771-.938c.059-.043.148-.048.142-.012l.205.174c.02.1.07.193.153.263Zm-.233 1.792a.052.052 0 0 0 .006.072c.021.071.053.043.07-.006l.92-1.095c-.002-.021-.005-.053-.026-.071-.021-.018-.021-.015-.07.006l-.9 1.094Zm-.308-.261a.051.051 0 0 0 .006.072c.021.018.053.015.093-.007l.878-1.094a.052.052 0 0 0-.007-.072.05.05 0 0 0-.07.007l-.9 1.094Zm-.308-.261a.052.052 0 0 0 .007.071.05.05 0 0 0 .07-.006l.9-1.094c.018-.01.068-.054-.006-.072a.05.05 0 0 0-.07.006l-.9 1.095Zm-.345-.692.23.217.772-.96-.23-.195-.772.938Z" fill="url(#X)"/><path fill-rule="evenodd" clip-rule="evenodd" d="m21.282 5.058.004-.004c-1.552.372-2.603-.292-2.97-1.87S18.59.528 20.141.155l.019-.008c1.552-.372 2.654.294 2.973 1.872l.004.002c.366 1.577-.304 2.665-1.856 3.037ZM19.66 1.933a.36.36 0 0 0-.264.434.354.354 0 1 0 .69-.166.354.354 0 0 0-.426-.268Zm1.272 1.558c-.604.145-.843.464-.846.467l-.124-.129c.016-.015.24-.347.93-.505.689-.175 1.035.022 1.056.029l-.054.171c-.005-.001-.359-.179-.962-.033Zm.452-1.972c-.19.046-.283.24-.264.434a.354.354 0 0 0 .427.267c.232-.045.308-.24.263-.433-.045-.194-.236-.283-.426-.268Z" fill="url(#Y)"/><path fill-rule="evenodd" clip-rule="evenodd" d="M45.066 17.287h.003c-.637-.296-.825-.814-.534-1.462.29-.648.798-.826 1.435-.55l.009.002c.673.296.825.816.535 1.463v.002c-.29.647-.811.84-1.448.545Zm.265-1.528a.152.152 0 0 0-.206.085.154.154 0 0 0 .077.203c.078.045.17.001.248-.079-.006-.079.012-.173-.119-.209Zm.029.888c-.248-.114-.415-.029-.417-.026l-.009-.122c.01 0 .175-.055.458.098.283.11.351.272.357.28l-.064.045c-.002-.002-.077-.116-.325-.275Zm.679-.509c-.078-.087-.17-.013-.206.028-.036.08.044.173.077.21.078.035.17 0 .206-.079.035-.08.001-.173-.077-.159Z" fill="url(#Z)"/><path fill-rule="evenodd" clip-rule="evenodd" d="m6.181 38.72.035-.004c-1.275.137-2.02-.434-2.154-1.715H4.06c-.122-1.245.455-1.968 1.714-2.147l-.02-.004c1.224-.137 1.97.474 2.105 1.718l.003.002c.135 1.265-.479 2.012-1.682 2.15Zm-.975-2.55a.277.277 0 0 0-.242.307.275.275 0 0 0 .302.246c.15.014.258-.154.241-.307a.275.275 0 0 0-.301-.246Zm.882 1.374c-.521.053-.776-.116-.78-.117l-.056.126c.015.007.262.19.806.13.544-.061.745-.295.759-.306l-.083-.11c-.003.002-.215.224-.646.277Zm.477-1.526c-.15.051-.259.154-.242.306.017.153.152.3.302.246.15-.017.282-.154.242-.306a.275.275 0 0 0-.302-.246Z" fill="url(#aa)"/><path fill-rule="evenodd" clip-rule="evenodd" d="m41.02 12.571.034-.003c-1.275.137-2.02-.434-2.154-1.715l-.001-.001c-.122-1.244.455-1.967 1.714-2.146l-.02-.004c1.223-.137 1.97.474 2.105 1.717l.002.002c.136 1.266-.478 2.013-1.68 2.15Zm-.977-2.549a.277.277 0 0 0-.241.307.275.275 0 0 0 .301.246c.15.013.259-.155.242-.307a.274.274 0 0 0-.302-.246Zm.883 1.374c-.521.053-.776-.116-.78-.118l-.057.127c.016.007.263.19.807.13.543-.061.745-.295.758-.306l-.082-.11c-.003.002-.216.224-.646.277Zm.477-1.527c-.15.052-.259.155-.242.307.016.153.151.3.302.246.15-.017.282-.154.241-.307a.275.275 0 0 0-.301-.246Z" fill="url(#ab)"/><defs><linearGradient id="a" x1="5.815" y1="22.137" x2="5.815" y2="33.416" gradientUnits="userSpaceOnUse"><stop stop-color="#598AEA"/><stop offset="1" stop-color="#7B5FCA"/></linearGradient><linearGradient id="b" x1="17.533" y1="46.511" x2="20.179" y2="46.511" gradientUnits="userSpaceOnUse"><stop stop-color="#AB587E"/><stop offset="1" stop-color="#B05A76"/></linearGradient><linearGradient id="c" x1="32.303" y1="15.098" x2="32.303" y2="21.733" gradientUnits="userSpaceOnUse"><stop stop-color="#AEBD00"/><stop offset="1" stop-color="#E1D100"/></linearGradient><linearGradient id="d" x1="25" y1="13.67" x2="29.895" y2="13.67" gradientUnits="userSpaceOnUse"><stop stop-color="#72A615"/><stop offset="1" stop-color="#98B400"/></linearGradient><linearGradient id="e" x1="33.751" y1="22.472" x2="33.751" y2="27.225" gradientUnits="userSpaceOnUse"><stop stop-color="#EFCB00"/><stop offset="1" stop-color="#F0A100"/></linearGradient><linearGradient id="f" x1="13.438" y1="30.259" x2="13.438" y2="34.427" gradientUnits="userSpaceOnUse"><stop stop-color="#7862CC"/><stop offset="1" stop-color="#874FBE"/></linearGradient><linearGradient id="g" x1="45.628" y1="18.474" x2="45.628" y2="21.713" gradientUnits="userSpaceOnUse"><stop stop-color="#EFCC00"/><stop offset="1" stop-color="#EFBF00"/></linearGradient><linearGradient id="h" x1="24.43" y1="34.941" x2="27.695" y2="34.941" gradientUnits="userSpaceOnUse"><stop stop-color="#BA5D63"/><stop offset="1" stop-color="#CF623F"/></linearGradient><linearGradient id="i" x1="24.339" y1="2.101" x2="29.57" y2="1.588" gradientUnits="userSpaceOnUse"><stop stop-color="#74A60E"/><stop offset="1" stop-color="#82AB00"/></linearGradient><linearGradient id="j" x1="42.119" y1="36.29" x2="42.119" y2="39.84" gradientUnits="userSpaceOnUse"><stop stop-color="#F17D00"/><stop offset="1" stop-color="#F06C03"/></linearGradient><linearGradient id="k" x1="11.636" y1="34.272" x2="11.636" y2="42.187" gradientUnits="userSpaceOnUse"><stop stop-color="#8354C2"/><stop offset="1" stop-color="#9B549A"/></linearGradient><linearGradient id="l" x1="21.619" y1="6.485" x2="26.667" y2="6.485" gradientUnits="userSpaceOnUse"><stop stop-color="#6BA63A"/><stop offset="1" stop-color="#77A700"/></linearGradient><linearGradient id="m" x1="1.899" y1="19.073" x2="1.899" y2="23.176" gradientUnits="userSpaceOnUse"><stop stop-color="#5392F0"/><stop offset="1" stop-color="#5C86E7"/></linearGradient><linearGradient id="n" x1="20.182" y1="23.235" x2="20.182" y2="28.742" gradientUnits="userSpaceOnUse"><stop stop-color="#4F96F3"/><stop offset="1" stop-color="#7A5FCA"/></linearGradient><linearGradient id="o" x1="12.543" y1="3.874" x2="12.543" y2="12.244" gradientUnits="userSpaceOnUse"><stop stop-color="#60A671"/><stop offset="1" stop-color="#4DA5D2"/></linearGradient><linearGradient id="p" x1="29.097" y1="40.824" x2="23.628" y2="40.824" gradientUnits="userSpaceOnUse"><stop stop-color="#CE623F"/><stop offset="1" stop-color="#BB5D62"/></linearGradient><linearGradient id="q" x1="21.235" y1="46.993" x2="23.357" y2="46.993" gradientUnits="userSpaceOnUse"><stop stop-color="#B65B6A"/><stop offset="1" stop-color="#BB5D62"/></linearGradient><linearGradient id="r" x1="46.791" y1="23.309" x2="46.791" y2="26.094" gradientUnits="userSpaceOnUse"><stop stop-color="#EFB800"/><stop offset="1" stop-color="#F0AE00"/></linearGradient><linearGradient id="s" x1="35.131" y1="43.115" x2="37.44" y2="43.115" gradientUnits="userSpaceOnUse"><stop stop-color="#E0671F"/><stop offset="1" stop-color="#E56916"/></linearGradient><linearGradient id="t" x1="17.129" y1="29.299" x2="21.687" y2="33.857" gradientUnits="userSpaceOnUse"><stop stop-color="#8058C4"/><stop offset="1" stop-color="#A3568C"/></linearGradient><linearGradient id="u" x1="22.384" y1="28.386" x2="33.193" y2="28.386" gradientUnits="userSpaceOnUse"><stop offset=".179" stop-color="#7E5AC7"/><stop offset=".586" stop-color="#F26E00"/><stop offset="1" stop-color="#EFD000"/></linearGradient><linearGradient id="v" x1="29.279" y1="9.675" x2="40.011" y2="9.675" gradientUnits="userSpaceOnUse"><stop stop-color="#8BAF00"/><stop offset="1" stop-color="#B7C000"/></linearGradient><linearGradient id="w" x1="14.511" y1="36.305" x2="19.597" y2="36.305" gradientUnits="userSpaceOnUse"><stop stop-color="#8F51AF"/><stop offset="1" stop-color="#A05592"/></linearGradient><linearGradient id="x" x1="29.057" y1="44.524" x2="33.731" y2="44.524" gradientUnits="userSpaceOnUse"><stop stop-color="#CF633E"/><stop offset="1" stop-color="#DB6628"/></linearGradient><linearGradient id="y" x1="17.145" y1="17.336" x2="17.145" y2="21.748" gradientUnits="userSpaceOnUse"><stop stop-color="#55A5A8"/><stop offset="1" stop-color="#4AAEFF"/></linearGradient><linearGradient id="z" x1="14.771" y1="23.663" x2="14.771" y2="29.543" gradientUnits="userSpaceOnUse"><stop stop-color="#588BEB"/><stop offset="1" stop-color="#7862CC"/></linearGradient><linearGradient id="A" x1="36.733" y1="12.906" x2="36.733" y2="15.549" gradientUnits="userSpaceOnUse"><stop stop-color="#C6C600"/><stop offset="1" stop-color="#D0CA00"/></linearGradient><linearGradient id="B" x1="45.104" y1="27.95" x2="45.104" y2="32.664" gradientUnits="userSpaceOnUse"><stop stop-color="#F0A400"/><stop offset="1" stop-color="#F09100"/></linearGradient><linearGradient id="C" x1="28.74" y1="15.649" x2="19.809" y2="24.579" gradientUnits="userSpaceOnUse"><stop stop-color="#B5BF00"/><stop offset=".531" stop-color="#5CA48B"/><stop offset=".929" stop-color="#45A3FD"/></linearGradient><linearGradient id="D" x1="16.96" y1="41.907" x2="22.7" y2="41.907" gradientUnits="userSpaceOnUse"><stop stop-color="#A4578A"/><stop offset="1" stop-color="#B65C6A"/></linearGradient><linearGradient id="E" x1="5.338" y1="10.16" x2="5.338" y2="19.437" gradientUnits="userSpaceOnUse"><stop stop-color="#4CA5D8"/><stop offset=".587" stop-color="#47A1FC"/><stop offset="1" stop-color="#5096F3"/></linearGradient><linearGradient id="F" x1="30.291" y1="31.736" x2="34.158" y2="31.736" gradientUnits="userSpaceOnUse"><stop stop-color="#E66914"/><stop offset="1" stop-color="#F17700"/></linearGradient><linearGradient id="G" x1="31.417" y1="1.885" x2="35.632" y2="4.831" gradientUnits="userSpaceOnUse"><stop stop-color="#91B100"/><stop offset="1" stop-color="#A3B800"/></linearGradient><linearGradient id="H" x1="36.808" y1="31.857" x2="36.808" y2="38.408" gradientUnits="userSpaceOnUse"><stop stop-color="#F18300"/><stop offset="1" stop-color="#ED6B09"/></linearGradient><linearGradient id="I" x1="11.762" y1="20.01" x2="11.762" y2="24.597" gradientUnits="userSpaceOnUse"><stop stop-color="#4C9AF7"/><stop offset="1" stop-color="#5E83E5"/></linearGradient><linearGradient id="J" x1="20.166" y1="35.847" x2="23.548" y2="35.847" gradientUnits="userSpaceOnUse"><stop stop-color="#A4568B"/><stop offset="1" stop-color="#B55B6D"/></linearGradient><linearGradient id="K" x1="11.653" y1="43.826" x2="15.034" y2="43.826" gradientUnits="userSpaceOnUse"><stop stop-color="#9C5499"/><stop offset="1" stop-color="#A2568E"/></linearGradient><linearGradient id="L" x1="41.102" y1="13.968" x2="41.102" y2="22.012" gradientUnits="userSpaceOnUse"><stop stop-color="#D6CD00"/><stop offset="1" stop-color="#EFC200"/></linearGradient><linearGradient id="M" x1="16.932" y1="2.045" x2="15.592" y2="3.739" gradientUnits="userSpaceOnUse"><stop stop-color="#63A662"/><stop offset="1" stop-color="#60A671"/></linearGradient><linearGradient id="N" x1="41.528" y1="23.766" x2="41.528" y2="30.892" gradientUnits="userSpaceOnUse"><stop stop-color="#EFB900"/><stop offset="1" stop-color="#F09500"/></linearGradient><linearGradient id="O" x1="17.087" y1="11.994" x2="10.723" y2="18.464" gradientUnits="userSpaceOnUse"><stop stop-color="#57A59F"/><stop offset="1" stop-color="#45A5FC"/></linearGradient><linearGradient id="P" x1="24.21" y1="46.066" x2="27.97" y2="46.066" gradientUnits="userSpaceOnUse"><stop stop-color="#BE5E5C"/><stop offset="1" stop-color="#C8604B"/></linearGradient><linearGradient id="Q" x1="16.876" y1="12.608" x2="24.119" y2="12.608" gradientUnits="userSpaceOnUse"><stop stop-color="#5BA58B"/><stop offset="1" stop-color="#6EA62C"/></linearGradient><linearGradient id="R" x1="27.419" y1="6.311" x2="31.662" y2="6.311" gradientUnits="userSpaceOnUse"><stop stop-color="#7DA900"/><stop offset="1" stop-color="#91B100"/></linearGradient><linearGradient id="S" x1="38.067" y1="27.948" x2="35.043" y2="30.973" gradientUnits="userSpaceOnUse"><stop stop-color="#F17900"/><stop offset="1" stop-color="#E56916"/></linearGradient><linearGradient id="T" x1="37.604" y1="19.637" x2="37.604" y2="22.565" gradientUnits="userSpaceOnUse"><stop stop-color="#EBD500"/><stop offset="1" stop-color="#EFC400"/></linearGradient><linearGradient id="U" x1="43.078" y1="33.871" x2="43.078" y2="36.167" gradientUnits="userSpaceOnUse"><stop stop-color="#F18800"/><stop offset="1" stop-color="#F18200"/></linearGradient><linearGradient id="V" x1="31.38" y1="35.93" x2="31.38" y2="40.919" gradientUnits="userSpaceOnUse"><stop stop-color="#E2681C"/><stop offset="1" stop-color="#D46435"/></linearGradient><linearGradient id="W" x1="20.682" y1="8.316" x2="17.579" y2="8.316" gradientUnits="userSpaceOnUse"><stop stop-color="#67A64F"/><stop offset="1" stop-color="#62A668"/></linearGradient><linearGradient id="X" x1="39.032" y1="39.645" x2="39.032" y2="42.744" gradientUnits="userSpaceOnUse"><stop stop-color="#F06C04"/><stop offset="1" stop-color="#E96A10"/></linearGradient><linearGradient id="Y" x1="22.519" y1="1.59" x2="18.215" y2="3.58" gradientUnits="userSpaceOnUse"><stop stop-color="#6FA626"/><stop offset="1" stop-color="#67A64F"/></linearGradient><linearGradient id="Z" x1="45.528" y1="15.149" x2="45.528" y2="17.422" gradientUnits="userSpaceOnUse"><stop stop-color="#ECD500"/><stop offset="1" stop-color="#EFD100"/></linearGradient><linearGradient id="aa" x1="5.963" y1="34.831" x2="5.963" y2="38.736" gradientUnits="userSpaceOnUse"><stop stop-color="#7E5AC6"/><stop offset="1" stop-color="#874FBE"/></linearGradient><linearGradient id="ab" x1="38.883" y1="8.683" x2="42.719" y2="12.588" gradientUnits="userSpaceOnUse"><stop stop-color="#C0C400"/><stop offset="1" stop-color="#D5CC00"/></linearGradient></defs></svg>